PathFileType	4	(X/Y/Z)	C:\Documents and Settings\mvidt\Desktop\Forward_reach_ACS_12-5-11\acs_forward8.trc
DataRate	CameraRate	NumFrames	NumMarkers	Units	OrigDataRate	OrigDataStartFrame	OrigNumFrames
200.00	200.00	      34	10	mm	200.00	1	      1000
Frame#	Time	R.Clavicle			C7			R.Shoulder			R.Bicep			R.Elbow.Lateral			R.Forearm			R.Radius			Handle			R.Elbow.Medial			R.Ulna			
		X1	Y1	Z1	X2	Y2	Z2	X3	Y3	Z3	X4	Y4	Z4	X5	Y5	Z5	X6	Y6	Z6	X7	Y7	Z7	X8	Y8	Z8	X9	Y9	Z9	X10	Y10	Z10	

1	0.000	-384.62323	338.52643	306.37619				-431.35745	163.42499	311.93900	-374.63980	126.79897	119.23823	-409.94290	82.35439	15.52551	-312.34158	95.55307	72.21840	-168.85101	117.14321	115.44177	-52.91784	111.57663	173.04408	-409.61761	175.38527	-17.55162	-158.31583	62.43486	49.16092	
2	0.005	-384.62323	338.52643	306.37619				-431.35745	163.42499	311.93900	-374.63980	126.79897	119.23823	-409.94290	82.35439	15.52551	-311.99728	96.90479	71.46088	-169.22375	116.71219	116.06075	-53.02473	111.61108	173.13303	-409.61761	175.38527	-17.55162	-158.31583	62.43486	49.16092	
3	0.010	-384.62323	338.52643	306.37619				-432.29541	162.89511	311.17529	-374.63980	126.79897	119.23823	-409.94290	82.35439	15.52551	-312.34158	95.55307	72.21840	-168.92264	117.35866	115.53752	-52.97464	112.08382	173.12143	-408.66132	176.49940	-18.18258	-158.31583	62.43486	49.16092	
4	0.015	-384.62323	338.52643	306.37619				-431.35745	163.42499	311.93900	-374.63980	126.79897	119.23823	-409.94290	82.35439	15.52551	-312.34158	95.55307	72.21840	-169.38121	116.96332	115.84900	-52.97464	112.08382	173.12143	-409.61761	175.38527	-17.55162	-158.31583	62.43486	49.16092	
5	0.020	-384.62323	338.52643	306.37619				-432.29541	162.89511	311.17529	-374.63980	126.79897	119.23823	-409.94290	82.35439	15.52551	-312.34158	95.55307	72.21840	-168.92264	117.35866	115.53752	-52.97464	112.08382	173.12143	-408.66132	176.49940	-18.18258	-158.31583	62.43486	49.16092	
6	0.025	-384.62323	338.52643	306.37619				-431.35745	163.42499	311.93900	-374.63980	126.79897	119.23823	-409.94290	82.35439	15.52551	-312.34158	95.55307	72.21840	-168.92264	117.35866	115.53752	-52.97464	112.08382	173.12143	-409.61761	175.38527	-17.55162	-158.31583	62.43486	49.16092	
7	0.030	-384.62323	338.52643	306.37619				-431.35745	163.42499	311.93900	-374.63980	126.79897	119.23823	-409.94290	82.35439	15.52551	-311.19608	96.77386	71.36546	-168.92723	117.14513	115.81486	-52.97464	112.08382	173.12143	-409.61761	175.38527	-17.55162	-158.31583	62.43486	49.16092	
8	0.035	-384.62323	338.52643	306.37619				-431.35745	163.42499	311.93900	-374.63980	126.79897	119.23823	-408.92511	84.07064	14.31672	-310.74643	98.30746	70.49371	-168.92264	117.35866	115.53752	-52.86777	112.04937	173.03252	-409.22165	175.28030	-17.52905	-158.31583	62.43486	49.16092	
9	0.040	-384.62323	338.52643	306.37619				-431.35745	163.42499	311.93900	-374.63980	126.79897	119.23823	-408.92511	84.07064	14.31672	-311.99728	96.90479	71.46088	-168.92264	117.35866	115.53752	-52.86777	112.04937	173.03252	-409.22165	175.28030	-17.52905	-158.31583	62.43486	49.16092	
10	0.045	-384.62323	338.52643	306.37619				-431.35745	163.42499	311.93900	-374.63980	126.79897	119.23823	-409.42847	82.15478	15.97900	-311.99728	96.90479	71.46088	-168.92264	117.35866	115.53752	-52.86777	112.04937	173.03252	-408.97827	175.21579	-17.51492	-158.31583	62.43486	49.16092	
11	0.050	-384.62323	338.52643	306.37619				-431.35745	163.42499	311.93900	-374.63980	126.79897	119.23823	-408.92511	84.07064	14.31672	-311.99728	96.90479	71.46088	-168.92264	117.35866	115.53752	-52.74300	112.03380	173.32184	-409.22165	175.28030	-17.52905	-157.95189	62.04198	49.37211	
12	0.055	-384.62323	338.52643	306.37619				-431.35745	163.42499	311.93900	-374.63980	126.79897	119.23823	-408.92511	84.07064	14.31672	-311.99728	96.90479	71.46088	-168.92264	117.35866	115.53752	-52.97464	112.08382	173.12143	-409.22165	175.28030	-17.52905	-158.31583	62.43486	49.16092	
13	0.060	-384.62323	338.52643	306.37619				-431.15912	163.34023	311.38116	-374.63980	126.79897	119.23823	-408.92511	84.07064	14.31672	-312.34158	95.55307	72.21840	-168.92264	117.35866	115.53752	-52.97464	112.08382	173.12143	-408.97299	176.26920	-18.04432	-158.31583	62.43486	49.16092	
14	0.065	-384.62323	338.52643	306.37619				-432.29541	162.89511	311.17529	-374.63980	126.79897	119.23823	-408.92511	84.07064	14.31672	-311.99728	96.90479	71.46088	-168.92264	117.35866	115.53752	-52.97464	112.08382	173.12143	-408.27957	176.39642	-18.15921	-158.31583	62.43486	49.16092	
15	0.070	-384.62323	338.52643	306.37619				-431.15912	163.34023	311.38116	-374.63980	126.79897	119.23823	-408.92511	84.07064	14.31672	-311.99728	96.90479	71.46088	-168.92264	117.35866	115.53752	-52.97464	112.08382	173.12143	-408.97299	176.26920	-18.04432	-158.31583	62.43486	49.16092	
16	0.075	-384.62323	338.52643	306.37619				-431.15912	163.34023	311.38116	-374.63980	126.79897	119.23823	-408.92511	84.07064	14.31672	-311.99728	96.90479	71.46088	-168.92264	117.35866	115.53752	-52.86777	112.04937	173.03252	-408.97299	176.26920	-18.04432	-157.95189	62.04198	49.37211	
17	0.080	-384.62323	338.52643	306.37619				-431.15912	163.34023	311.38116	-374.63980	126.79897	119.23823	-408.41040	83.87051	14.77086	-312.32260	94.86250	72.08060	-168.92264	117.35866	115.53752	-52.97464	112.08382	173.12143	-408.33368	176.10043	-18.00722	-158.31583	62.43486	49.16092	
18	0.085	-384.62323	338.52643	306.37619				-431.57138	163.44859	310.95111	-374.63980	126.79897	119.23823	-408.92511	84.07064	14.31672	-311.99728	96.90479	71.46088	-168.92264	117.35866	115.53752	-52.86777	112.04937	173.03252	-408.45105	176.88261	-18.38910	-158.31583	62.43486	49.16092	
19	0.090	-384.62323	338.52643	306.37619				-431.15912	163.34023	311.38116	-374.33133	127.16816	118.69427	-408.92511	84.07064	14.31672	-312.34158	95.55307	72.21840	-168.92264	117.35866	115.53752	-52.86777	112.04937	173.03252	-408.97299	176.26920	-18.04432	-158.31583	62.43486	49.16092	
20	0.095	-384.62323	338.52643	306.37619				-431.15912	163.34023	311.38116	-374.63980	126.79897	119.23823	-408.92511	84.07064	14.31672	-311.99728	96.90479	71.46088	-168.92264	117.35866	115.53752	-52.97464	112.08382	173.12143	-408.97299	176.26920	-18.04432	-158.31583	62.43486	49.16092	
21	0.100	-384.62323	338.52643	306.37619				-431.15912	163.34023	311.38116	-374.63980	126.79897	119.23823	-408.92511	84.07064	14.31672	-312.32260	94.86250	72.08060	-168.92264	117.35866	115.53752	-52.97464	112.08382	173.12143	-408.97299	176.26920	-18.04432	-158.31583	62.43486	49.16092	
22	0.105	-384.47122	338.05347	306.35132				-431.57138	163.44859	310.95111	-374.63980	126.79897	119.23823	-408.92511	84.07064	14.31672	-311.99728	96.90479	71.46088	-168.92264	117.35866	115.53752	-52.97464	112.08382	173.12143	-408.44794	176.35492	-18.37577	-158.31583	62.43486	49.16092	
23	0.110	-385.18066	337.80338	305.84030				-431.15912	163.34023	311.38116	-374.33133	127.16816	118.69427	-408.92511	84.07064	14.31672	-312.34158	95.55307	72.21840	-168.92264	117.35866	115.53752	-52.97464	112.08382	173.12143	-409.64194	174.57356	-18.08354	-158.31583	62.43486	49.16092	
24	0.115	-385.02875	337.33029	305.81537				-431.15912	163.34023	311.38116	-374.33133	127.16816	118.69427	-408.92511	84.07064	14.31672	-312.34158	95.55307	72.21840	-168.92264	117.35866	115.53752	-52.86777	112.04937	173.03252	-409.64160	174.04282	-18.06793	-157.95189	62.04198	49.37211	
25	0.120	-385.02875	337.33029	305.81537				-431.15912	163.34023	311.38116	-374.33133	127.16816	118.69427	-408.92511	84.07064	14.31672	-311.99728	96.90479	71.46088	-168.92264	117.35866	115.53752	-52.97464	112.08382	173.12143	-409.64160	174.04282	-18.06793	-157.95189	62.04198	49.37211	
26	0.125	-385.02875	337.33029	305.81537				-430.90790	163.29755	311.09674	-374.33133	127.16816	118.69427	-408.92511	84.07064	14.31672	-312.32260	94.86250	72.08060	-168.92264	117.35866	115.53752	-52.97464	112.08382	173.12143	-409.59546	174.58401	-18.34371	-157.95189	62.04198	49.37211	
27	0.130	-385.02875	337.33029	305.81537				-431.15912	163.34023	311.38116	-374.63980	126.79897	119.23823	-408.92511	84.07064	14.31672	-311.99728	96.90479	71.46088	-168.92264	117.35866	115.53752	-52.86777	112.04937	173.03252	-409.64160	174.04282	-18.06793	-157.95189	62.04198	49.37211	
28	0.135	-385.02875	337.33029	305.81537				-430.90790	163.29755	311.09674	-374.33133	127.16816	118.69427	-408.92511	84.07064	14.31672	-312.64459	94.13292	71.86508	-168.92264	117.35866	115.53752	-52.97464	112.08382	173.12143	-409.59546	174.58401	-18.34371	-157.95189	62.04198	49.37211	
29	0.140	-384.96710	336.89023	305.97223				-430.90790	163.29755	311.09674	-374.33133	127.16816	118.69427	-408.92511	84.07064	14.31672	-312.34692	96.04580	71.21281	-168.92264	117.35866	115.53752	-52.97464	112.08382	173.12143	-409.54425	174.39951	-18.31424	-157.95189	62.04198	49.37211	
30	0.145	-384.96710	336.89023	305.97223				-430.90790	163.29755	311.09674	-374.63980	126.79897	119.23823	-408.92511	84.07064	14.31672	-312.69110	94.69420	71.97067	-168.92264	117.35866	115.53752	-52.86777	112.04937	173.03252	-409.54425	174.39951	-18.31424	-157.95189	62.04198	49.37211	
31	0.150	-384.96710	336.89023	305.97223				-430.90790	163.29755	311.09674	-374.33133	127.16816	118.69427	-408.92511	84.07064	14.31672	-312.34158	95.55307	72.21840	-168.92264	117.35866	115.53752	-52.86777	112.04937	173.03252	-409.54425	174.39951	-18.31424	-157.95189	62.04198	49.37211	
32	0.155	-384.96710	336.89023	305.97223				-430.90790	163.29755	311.09674	-374.33133	127.16816	118.69427	-408.92511	84.07064	14.31672	-312.34158	95.55307	72.21840	-168.92264	117.35866	115.53752	-52.86777	112.04937	173.03252	-409.54425	174.39951	-18.31424	-157.95189	62.04198	49.37211	
33	0.160	-384.96710	336.89023	305.97223				-430.90790	163.29755	311.09674	-374.33133	127.16816	118.69427	-408.92511	84.07064	14.31672	-312.32260	94.86250	72.08060	-168.92264	117.35866	115.53752	-52.86777	112.04937	173.03252	-409.54425	174.39951	-18.31424	-157.95189	62.04198	49.37211	
34	0.165	-384.96710	336.89023	305.97223				-430.90790	163.29755	311.09674	-374.33133	127.16816	118.69427	-408.92511	84.07064	14.31672	-312.32260	94.86250	72.08060	-168.92264	117.35866	115.53752	-52.86777	112.04937	173.03252	-409.54425	174.39951	-18.31424	-157.95189	62.04198	49.37211	
